<?xml version="1.0" encoding="UTF-8" standalone="no"?>
<!-- Created with Inkscape (http://www.inkscape.org/) -->

<svg
   xmlns:dc="http://purl.org/dc/elements/1.1/"
   xmlns:cc="http://creativecommons.org/ns#"
   xmlns:rdf="http://www.w3.org/1999/02/22-rdf-syntax-ns#"
   xmlns:svg="http://www.w3.org/2000/svg"
   xmlns="http://www.w3.org/2000/svg"
   xmlns:sodipodi="http://sodipodi.sourceforge.net/DTD/sodipodi-0.dtd"
   xmlns:inkscape="http://www.inkscape.org/namespaces/inkscape"
   width="210mm"
   height="297mm"
   viewBox="0 0 210 297"
   version="1.1"
   id="svg194"
   inkscape:version="0.92.2 5c3e80d, 2017-08-06"
   sodipodi:docname="spaceship-outline.svg"
   inkscape:export-filename="/Users/jered/sship-152.png"
   inkscape:export-xdpi="15.733074"
   inkscape:export-ydpi="15.733074">
  <defs
     id="defs188" />
  <sodipodi:namedview
     id="base"
     pagecolor="#ffffff"
     bordercolor="#666666"
     borderopacity="1.0"
     inkscape:pageopacity="0.0"
     inkscape:pageshadow="2"
     inkscape:zoom="0.22012759"
     inkscape:cx="78.928353"
     inkscape:cy="923.8348"
     inkscape:document-units="mm"
     inkscape:current-layer="layer1"
     showgrid="false"
     inkscape:window-width="1680"
     inkscape:window-height="1005"
     inkscape:window-x="0"
     inkscape:window-y="1"
     inkscape:window-maximized="1" />
  <metadata
     id="metadata191">
    <rdf:RDF>
      <cc:Work
         rdf:about="">
        <dc:format>image/svg+xml</dc:format>
        <dc:type
           rdf:resource="http://purl.org/dc/dcmitype/StillImage" />
        <dc:title></dc:title>
      </cc:Work>
    </rdf:RDF>
  </metadata>
  <g
     inkscape:label="Layer 1"
     inkscape:groupmode="layer"
     id="layer1">
    <path
       style="fill:#b53632;fill-opacity:1;stroke-width:2.665;stroke:#666666;stroke-opacity:1;stroke-miterlimit:4;stroke-dasharray:none"
       d="m 10.74097,201.71399 c -4.24396,-9.87718 -9.8601,-20.9458 -6.57044,-31.82239 3.99153,-8.50957 28.8824,-28.66878 33.22313,-24.14417 1.91479,8.55336 9.39916,20.76498 5.64085,28.00916 -15.83833,3.71158 -22.3846,18.50004 -31.63419,28.15559 l -0.29956,0.0901 -0.35975,-0.28851 z"
       id="path3990"
       inkscape:connector-curvature="0" />
    <path
       style="fill:#000000;stroke-width:2.665;stroke:#666666;stroke-opacity:1;stroke-miterlimit:4;stroke-dasharray:none"
       d="m 58.84186,108.98782 c -0.50932,0.11474 0.37901,1.15976 0,0 z"
       id="path3988"
       inkscape:connector-curvature="0" />
    <path
       style="fill:#b53632;fill-opacity:1;stroke-width:2.665;stroke:#666666;stroke-opacity:1;stroke-miterlimit:4;stroke-dasharray:none"
       d="m 128.70956,88.987701 c -10.40223,-2.938546 -11.51057,-17.367288 -8.71261,-26.246778 2.4446,-6.931259 8.22324,-20.42709 16.59966,-12.176417 3.8855,5.649251 -9.44492,14.191619 -6.40251,23.198098 1.71472,4.390449 8.42171,16.306979 -1.48454,15.225097 z"
       id="path3986"
       inkscape:connector-curvature="0" />
    <path
       style="fill:#658f41;fill-opacity:1;stroke-width:2.665;stroke:#666666;stroke-opacity:1;stroke-miterlimit:4;stroke-dasharray:none"
       d="m 166.87305,38.804688 c -5.85948,0.04834 -6.33027,7.029568 -7.40039,11.201171 -15.24278,35.099801 -40.1678,66.377371 -72.904301,86.652341 -3.636554,2.28528 -9.308625,7.56934 -5.072265,11.84766 6.401329,4.27864 14.82874,0.26247 20.880856,-3.01563 23.81354,-14.93134 45.9681,-33.28197 62.60157,-56.111324 7.93197,-11.635337 13.87035,-25.921464 12.11132,-40.208984 -1.26351,-4.729316 -4.89472,-10.053695 -10.21679,-10.365234 z"
       id="path3984"
       inkscape:connector-curvature="0" />
    <path
       style="fill:#000000;stroke-width:2.665;stroke:#666666;stroke-opacity:1;stroke-miterlimit:4;stroke-dasharray:none"
       d="M 96.76184,176.20315 C 58.58923,164.87533 57.87604,110.25254 83.4254,92.721441 c 9.75349,-6.59694 22.75176,-8.546315 33.52661,-3.514241 9.10753,6.054119 6.02316,14.93373 -3.44748,9.38343 -8.99541,-4.198364 -16.47713,2.61812 -23.33767,9.16543 -8.91588,9.06246 -13.65547,23.59659 -10.46916,36.33864 16.52452,32.38638 62.49388,19.26647 70.69528,-7.72249 1.03655,-7.92891 -2.619,-17.69619 1.2461,-23.95867 4.52212,-4.2413 12.56241,-0.11969 16.89259,3.87678 3.93285,8.87862 0.36527,20.0549 -3.63021,28.48218 -14.9852,26.27946 -40.4037,38.78167 -68.13962,31.43065 z"
       id="path3982"
       inkscape:connector-curvature="0" />
    <path
       style="display:inline;fill:#386a78;fill-opacity:1;stroke-width:2.665;stroke:#666666;stroke-opacity:1;stroke-miterlimit:4;stroke-dasharray:none"
       d="M 168.46484,15.769531 C 134.20492,17.617895 102.93159,35.58015 77.519531,57.628906 54.416931,77.474842 38.041157,106.8464 39.318744,137.89415 c 0.261199,25.5522 14.068012,51.10545 37.093365,62.99062 24.177271,12.5065 54.247921,13.97596 79.298831,3.125 17.1887,-7.26344 30.72858,-21.54664 38.1868,-38.5391 13.57395,-29.03724 17.24121,-61.96435 15.12719,-93.689918 -1.57938,-17.83507 -6.0453,-37.4307 -20.05032,-49.724111 -5.82006,-4.44544 -13.25194,-6.410872 -20.50977,-6.28711 z m -0.40039,18.277344 c 11.22015,0.403001 16.07943,12.241099 18.36328,21.515625 6.21934,24.8249 3.01084,51.40004 -3.59115,76.16603 -5.96517,20.57665 -16.80347,42.24784 -37.2858,51.61913 C 123.31809,194.6646 93.859762,193.72947 75.169922,175.76367 59.331986,160.47589 55.567964,136.08441 62.277344,115.84375 72.030214,84.529519 99.758971,63.372706 126.52344,47.074219 139.06381,39.522363 153.44657,33.837196 168.06445,34.046875 Z"
       id="path3978"
       inkscape:connector-curvature="0" />
    <path
       style="fill:#b53632;fill-opacity:1;stroke-width:2.665;stroke:#666666;stroke-opacity:1;stroke-miterlimit:4;stroke-dasharray:none"
       d="m 61.68267,245.5282 c -7.63677,-4.21109 -20.36469,-9.40548 -13.72477,-21.17387 4.74874,-9.09491 10.1856,-17.93212 14.90594,-26.96519 11.34355,-0.84448 26.4957,12.39405 20.93269,19.83085 -5.25227,7.29346 -7.79266,16.16537 -13.3149,23.13553 -2.23469,2.66782 -4.75079,6.95743 -8.79896,5.17268 z"
       id="path3976"
       inkscape:connector-curvature="0" />
    <path
       style="fill:#b53632;fill-opacity:1;stroke-width:2.665;stroke:#666666;stroke-opacity:1;stroke-miterlimit:4;stroke-dasharray:none"
       d="m 106.28612,258.45722 c 8.47047,-12.59005 15.73015,-27.13868 15.68788,-43.15625 5.56877,-6.06936 28.85863,-6.73887 28.85863,-6.73887 2.23713,10.33826 -4.69212,19.74158 -7.67481,29.32745 -4.98847,14.14919 -5.5404,20.12688 -36.8717,20.56767 z"
       id="path207"
       inkscape:connector-curvature="0"
       inkscape:label="path207" />
  </g>
</svg>
